<svg width="148" height="147" viewBox="0 0 148 147" fill="none" xmlns="http://www.w3.org/2000/svg">
<g clip-path="url(#clip0_630_1409)">
<circle cx="2.95808" cy="59.6163" r="2.61628" fill="#252525"/>
<circle cx="101.958" cy="59.6163" r="2.61628" fill="#252525"/>
<circle cx="2.95808" cy="73.7442" r="2.61628" fill="#252525"/>
<circle cx="101.958" cy="73.7442" r="2.61628" fill="#252525"/>
<circle cx="2.95808" cy="87.8721" r="2.61628" fill="#252525"/>
<circle cx="101.958" cy="87.8721" r="2.61628" fill="#252525"/>
<circle cx="2.95808" cy="3.00007" r="2.61628" fill="#252525"/>
<circle cx="2.95808" cy="102" r="2.61628" fill="#252525"/>
<circle cx="101.958" cy="3.00007" r="2.61628" fill="#252525"/>
<circle cx="101.958" cy="102" r="2.61628" fill="#252525"/>
<circle cx="2.95808" cy="17.128" r="2.61628" fill="#252525"/>
<circle cx="2.95808" cy="116.128" r="2.61628" fill="#252525"/>
<circle cx="101.958" cy="17.128" r="2.61628" fill="#252525"/>
<circle cx="101.958" cy="116.128" r="2.61628" fill="#252525"/>
<circle cx="2.95808" cy="31.2559" r="2.61628" fill="#252525"/>
<circle cx="2.95808" cy="130.256" r="2.61628" fill="#252525"/>
<circle cx="101.958" cy="31.2559" r="2.61628" fill="#252525"/>
<circle cx="101.958" cy="130.256" r="2.61628" fill="#252525"/>
<circle cx="2.95808" cy="45.3839" r="2.61628" fill="#252525"/>
<circle cx="2.95808" cy="144.384" r="2.61628" fill="#252525"/>
<circle cx="101.958" cy="45.3839" r="2.61628" fill="#252525"/>
<circle cx="101.958" cy="144.384" r="2.61628" fill="#252525"/>
<circle cx="17.085" cy="59.6163" r="2.61628" fill="#252525"/>
<circle cx="116.085" cy="59.6163" r="2.61628" fill="#252525"/>
<circle cx="17.085" cy="73.7442" r="2.61628" fill="#252525"/>
<circle cx="116.085" cy="73.7442" r="2.61628" fill="#252525"/>
<circle cx="17.085" cy="87.8721" r="2.61628" fill="#252525"/>
<circle cx="116.085" cy="87.8721" r="2.61628" fill="#252525"/>
<circle cx="17.085" cy="3.00007" r="2.61628" fill="#252525"/>
<circle cx="17.085" cy="102" r="2.61628" fill="#252525"/>
<circle cx="116.085" cy="3.00007" r="2.61628" fill="#252525"/>
<circle cx="116.085" cy="102" r="2.61628" fill="#252525"/>
<circle cx="17.085" cy="17.128" r="2.61628" fill="#252525"/>
<circle cx="17.085" cy="116.128" r="2.61628" fill="#252525"/>
<circle cx="116.085" cy="17.128" r="2.61628" fill="#252525"/>
<circle cx="116.085" cy="116.128" r="2.61628" fill="#252525"/>
<circle cx="17.085" cy="31.2559" r="2.61628" fill="#252525"/>
<circle cx="17.085" cy="130.256" r="2.61628" fill="#252525"/>
<circle cx="116.085" cy="31.2559" r="2.61628" fill="#252525"/>
<circle cx="116.085" cy="130.256" r="2.61628" fill="#252525"/>
<circle cx="17.085" cy="45.3839" r="2.61628" fill="#252525"/>
<circle cx="17.085" cy="144.384" r="2.61628" fill="#252525"/>
<circle cx="116.085" cy="45.3839" r="2.61628" fill="#252525"/>
<circle cx="116.085" cy="144.384" r="2.61628" fill="#252525"/>
<circle cx="31.2139" cy="59.6163" r="2.61628" fill="#252525"/>
<circle cx="130.214" cy="59.6163" r="2.61628" fill="#252525"/>
<circle cx="31.2139" cy="73.7442" r="2.61628" fill="#252525"/>
<circle cx="130.214" cy="73.7442" r="2.61628" fill="#252525"/>
<circle cx="31.2139" cy="87.8721" r="2.61628" fill="#252525"/>
<circle cx="130.214" cy="87.8721" r="2.61628" fill="#252525"/>
<circle cx="31.2139" cy="3.00007" r="2.61628" fill="#252525"/>
<circle cx="31.2139" cy="102" r="2.61628" fill="#252525"/>
<circle cx="130.214" cy="3.00007" r="2.61628" fill="#252525"/>
<circle cx="130.214" cy="102" r="2.61628" fill="#252525"/>
<circle cx="31.2139" cy="17.128" r="2.61628" fill="#252525"/>
<circle cx="31.2139" cy="116.128" r="2.61628" fill="#252525"/>
<circle cx="130.214" cy="17.128" r="2.61628" fill="#252525"/>
<circle cx="130.214" cy="116.128" r="2.61628" fill="#252525"/>
<circle cx="31.2139" cy="31.2559" r="2.61628" fill="#252525"/>
<circle cx="31.2139" cy="130.256" r="2.61628" fill="#252525"/>
<circle cx="130.214" cy="31.2559" r="2.61628" fill="#252525"/>
<circle cx="130.214" cy="130.256" r="2.61628" fill="#252525"/>
<circle cx="31.2139" cy="45.3839" r="2.61628" fill="#252525"/>
<circle cx="31.2139" cy="144.384" r="2.61628" fill="#252525"/>
<circle cx="130.214" cy="45.3839" r="2.61628" fill="#252525"/>
<circle cx="130.214" cy="144.384" r="2.61628" fill="#252525"/>
<circle cx="45.3428" cy="59.6163" r="2.61628" fill="#252525"/>
<circle cx="144.343" cy="59.6163" r="2.61628" fill="#252525"/>
<circle cx="45.3428" cy="73.7442" r="2.61628" fill="#252525"/>
<circle cx="144.343" cy="73.7442" r="2.61628" fill="#252525"/>
<circle cx="45.3428" cy="87.8721" r="2.61628" fill="#252525"/>
<circle cx="144.343" cy="87.8721" r="2.61628" fill="#252525"/>
<circle cx="45.3428" cy="3.00007" r="2.61628" fill="#252525"/>
<circle cx="45.3428" cy="102" r="2.61628" fill="#252525"/>
<circle cx="144.343" cy="3.00007" r="2.61628" fill="#252525"/>
<circle cx="144.343" cy="102" r="2.61628" fill="#252525"/>
<circle cx="45.3428" cy="17.128" r="2.61628" fill="#252525"/>
<circle cx="45.3428" cy="116.128" r="2.61628" fill="#252525"/>
<circle cx="144.343" cy="17.128" r="2.61628" fill="#252525"/>
<circle cx="144.343" cy="116.128" r="2.61628" fill="#252525"/>
<circle cx="45.3428" cy="31.2559" r="2.61628" fill="#252525"/>
<circle cx="45.3428" cy="130.256" r="2.61628" fill="#252525"/>
<circle cx="144.343" cy="31.2559" r="2.61628" fill="#252525"/>
<circle cx="144.343" cy="130.256" r="2.61628" fill="#252525"/>
<circle cx="45.3428" cy="45.3839" r="2.61628" fill="#252525"/>
<circle cx="45.3428" cy="144.384" r="2.61628" fill="#252525"/>
<circle cx="144.343" cy="45.3839" r="2.61628" fill="#252525"/>
<circle cx="144.343" cy="144.384" r="2.61628" fill="#252525"/>
<circle cx="59.4698" cy="59.6163" r="2.61628" fill="#252525"/>
<circle cx="59.4698" cy="73.7442" r="2.61628" fill="#252525"/>
<circle cx="59.4698" cy="87.8721" r="2.61628" fill="#252525"/>
<circle cx="59.4698" cy="3.00007" r="2.61628" fill="#252525"/>
<circle cx="59.4698" cy="102" r="2.61628" fill="#252525"/>
<circle cx="59.4698" cy="17.128" r="2.61628" fill="#252525"/>
<circle cx="59.4698" cy="116.128" r="2.61628" fill="#252525"/>
<circle cx="59.4698" cy="31.2559" r="2.61628" fill="#252525"/>
<circle cx="59.4698" cy="130.256" r="2.61628" fill="#252525"/>
<circle cx="59.4698" cy="45.3839" r="2.61628" fill="#252525"/>
<circle cx="59.4698" cy="144.384" r="2.61628" fill="#252525"/>
<circle cx="73.5967" cy="59.6163" r="2.61628" fill="#252525"/>
<circle cx="73.5967" cy="73.7442" r="2.61628" fill="#252525"/>
<circle cx="73.5967" cy="87.8721" r="2.61628" fill="#252525"/>
<circle cx="73.5967" cy="3.00007" r="2.61628" fill="#252525"/>
<circle cx="73.5967" cy="102" r="2.61628" fill="#252525"/>
<circle cx="73.5967" cy="17.128" r="2.61628" fill="#252525"/>
<circle cx="73.5967" cy="116.128" r="2.61628" fill="#252525"/>
<circle cx="73.5967" cy="31.2559" r="2.61628" fill="#252525"/>
<circle cx="73.5967" cy="130.256" r="2.61628" fill="#252525"/>
<circle cx="73.5967" cy="45.3839" r="2.61628" fill="#252525"/>
<circle cx="73.5967" cy="144.384" r="2.61628" fill="#252525"/>
<circle cx="87.7257" cy="59.6163" r="2.61628" fill="#252525"/>
<circle cx="87.7257" cy="73.7442" r="2.61628" fill="#252525"/>
<circle cx="87.7257" cy="87.8721" r="2.61628" fill="#252525"/>
<circle cx="87.7257" cy="3.00007" r="2.61628" fill="#252525"/>
<circle cx="87.7257" cy="102" r="2.61628" fill="#252525"/>
<circle cx="87.7257" cy="17.128" r="2.61628" fill="#252525"/>
<circle cx="87.7257" cy="116.128" r="2.61628" fill="#252525"/>
<circle cx="87.7257" cy="31.2559" r="2.61628" fill="#252525"/>
<circle cx="87.7257" cy="130.256" r="2.61628" fill="#252525"/>
<circle cx="87.7257" cy="45.3839" r="2.61628" fill="#252525"/>
<circle cx="87.7257" cy="144.384" r="2.61628" fill="#252525"/>
</g>
<defs>
<clipPath id="clip0_630_1409">
<rect width="147" height="147" fill="white" transform="translate(0.341797)"/>
</clipPath>
</defs>
</svg>
