<?xml version="1.0" encoding="utf-8"?>
<!-- Generator: Adobe Illustrator 26.5.0, SVG Export Plug-In . SVG Version: 6.00 Build 0)  -->
<svg version="1.1" id="Layer_1" xmlns="http://www.w3.org/2000/svg" xmlns:xlink="http://www.w3.org/1999/xlink" x="0px" y="0px"
	 viewBox="0 0 68 68" style="enable-background:new 0 0 68 68;" xml:space="preserve">
<style type="text/css">
	.st0{clip-path:url(#SVGID_00000064335691349493355890000003019690945944006576_);}
	.st1{fill:#FFFFFF;filter:url(#Adobe_OpacityMaskFilter);}
	.st2{mask:url(#mask0_3_2596_00000007419798799586470960000011814970240228313243_);}
	.st3{fill:#FFFFFF;filter:url(#Adobe_OpacityMaskFilter_00000168077703655273299480000008242375780396921250_);}
	.st4{mask:url(#mask1_3_2596_00000109023763182530112970000011086062972993152394_);}
	.st5{fill:#FFFFFF;stroke:#D93686;stroke-miterlimit:10;}
</style>
<g>
	<defs>
		<rect id="SVGID_1_" width="68" height="68"/>
	</defs>
	<use xlink:href="#SVGID_1_"  style="overflow:visible;fill:#FFFFFF;"/>
	<clipPath id="SVGID_00000041274869261289481650000000589021740639461264_">
		<use xlink:href="#SVGID_1_"  style="overflow:visible;"/>
	</clipPath>
	<g style="clip-path:url(#SVGID_00000041274869261289481650000000589021740639461264_);">
		<defs>
			<filter id="Adobe_OpacityMaskFilter" filterUnits="userSpaceOnUse" x="1.5" y="1.5" width="65" height="65">
				<feColorMatrix  type="matrix" values="1 0 0 0 0  0 1 0 0 0  0 0 1 0 0  0 0 0 1 0"/>
			</filter>
		</defs>
		
			<mask maskUnits="userSpaceOnUse" x="1.5" y="1.5" width="65" height="65" id="mask0_3_2596_00000007419798799586470960000011814970240228313243_">
			<path class="st1" d="M68,0H0v68h68V0z"/>
		</mask>
		<g class="st2">
			<defs>
				
					<filter id="Adobe_OpacityMaskFilter_00000142892542849963622180000015547741112518906020_" filterUnits="userSpaceOnUse" x="1.5" y="1.5" width="65" height="65">
					<feColorMatrix  type="matrix" values="1 0 0 0 0  0 1 0 0 0  0 0 1 0 0  0 0 0 1 0"/>
				</filter>
			</defs>
			
				<mask maskUnits="userSpaceOnUse" x="1.5" y="1.5" width="65" height="65" id="mask1_3_2596_00000109023763182530112970000011086062972993152394_">
				<path style="fill:#FFFFFF;filter:url(#Adobe_OpacityMaskFilter_00000142892542849963622180000015547741112518906020_);" d="M0,0
					h68v68H0V0z"/>
			</mask>
			<g class="st4">
				<path class="st5" d="M19.6,13.9h34.5v34.5l12,12V2H7.6L19.6,13.9z"/>
				<path class="st5" d="M48.4,54.1H13.9V19.6L2,7.6V66h58.4L48.4,54.1z"/>
				<path class="st5" d="M46.1,34c0,6.7-5.4,12.1-12.1,12.1S21.9,40.7,21.9,34S27.3,21.9,34,21.9S46.1,27.3,46.1,34z"/>
			</g>
		</g>
	</g>
	<use xlink:href="#SVGID_1_"  style="overflow:visible;fill:none;stroke:#D93686;stroke-miterlimit:10;"/>
</g>
</svg>
