<svg width="1432" height="1435" viewBox="0 0 1432 1435" fill="none" xmlns="http://www.w3.org/2000/svg">
<path d="M731.928 26.6011L762.082 28.7068C774.614 29.5832 783.892 34.0366 789.918 42.067C795.944 50.0973 798.472 61.0352 797.504 74.8806C796.531 88.7244 792.345 99.1924 784.947 106.285C777.55 113.377 767.213 116.461 753.937 115.535L725.858 113.573L731.928 26.6011ZM733.632 107.611L754.141 109.043C776.28 110.591 788.209 99.0277 789.93 74.3523C791.651 49.677 781.771 36.5887 760.289 35.0875L738.804 33.5854L733.632 107.611Z" fill="#DADADA"/>
<path d="M809.924 121.672L802.664 120.577L815.656 34.3667L822.916 35.4622L809.924 121.672Z" fill="#DADADA"/>
<path d="M869.016 94.3776L870.553 88.0724L906.695 96.8948L896.053 140.554L890.584 139.22L893.134 123.077C884.188 133.246 872.503 136.573 858.077 133.058C852.666 131.971 847.563 129.693 843.14 126.389C838.717 123.086 835.083 118.84 832.502 113.958C827.221 104.269 826.225 92.6824 829.514 79.199C832.742 65.9524 838.859 56.1855 847.866 49.8982C856.772 43.671 867.449 42.0756 879.896 45.1121C888.606 46.8843 896.512 51.4222 902.437 58.0511C905.038 61.1029 907.002 64.6453 908.211 68.4691C909.421 72.2929 909.853 76.3204 909.481 80.3139L902.469 79.0967C902.947 72.8291 900.927 66.6269 896.851 61.8439C892.049 56.5747 885.681 52.9901 878.687 51.6194C868.468 49.1216 859.651 50.5011 852.233 55.7579C844.816 61.0146 839.681 69.5083 836.828 81.239C834.08 92.5039 834.719 102.281 838.745 110.571C842.691 118.848 849.696 124.214 859.761 126.668C867.153 128.792 875.074 128.046 881.94 124.579C888.767 120.733 893.983 114.557 896.635 107.18L898.026 101.472L869.016 94.3776Z" fill="#DADADA"/>
<path d="M914.067 147.787L907.118 145.411L935.28 62.9033L942.228 65.2793L914.067 147.787Z" fill="#DADADA"/>
<path d="M954.103 68.6235L1016.94 95.3681L1014.4 101.34L986.362 89.4111L954.794 163.661L947.926 160.74L979.489 86.4898L951.563 74.6025L954.103 68.6235Z" fill="#DADADA"/>
<path d="M1040.05 207.503L1032.87 203.554L1036.55 174.431L1000.19 154.469L977.508 173.16L970.535 169.331L1043.74 109.931L1050.93 113.88L1040.05 207.503ZM1039.6 122.055L1005.56 150.014L1037.43 167.513L1043.04 123.936L1044.26 117.626L1039.6 122.055Z" fill="#DADADA"/>
<path d="M1099.44 143.468L1052.83 209.321L1092.58 237.488L1088.83 242.785L1043.09 210.373L1093.45 139.222L1099.44 143.468Z" fill="#DADADA"/>
<path d="M1146.44 236.972L1121.87 262.592L1160.8 299.985L1156.3 304.666L1112.07 262.185L1172.4 199.285L1215.49 240.67L1211 245.354L1173.21 209.059L1150.92 232.293L1185.97 265.956L1181.48 270.64L1146.44 236.972Z" fill="#DADADA"/>
<path d="M1270.24 305.279L1218.6 308.081L1204.52 362.576L1198.6 355.399L1210.15 313.622L1211.86 308.393L1206.33 308.994L1162.75 311.957L1157.07 305.062L1213.51 301.941L1226.04 251.736L1231.97 258.913L1221.75 296.729L1220.43 301.472L1225.25 300.985L1264.45 298.307L1270.24 305.279Z" fill="#DADADA"/>
<path d="M1279.58 318.684L1298.5 347.855C1303.07 354.907 1304.88 361.61 1303.95 367.964C1303.37 371.267 1302.07 374.402 1300.14 377.144C1298.21 379.885 1295.7 382.166 1292.79 383.821C1286.08 388.176 1279.58 389.474 1273.29 387.717C1267 385.959 1261.45 381.384 1256.66 373.991L1242.2 351.702L1210.48 372.294L1206.48 366.133L1279.58 318.684ZM1247.64 348.172L1262.24 370.671C1264.89 375.393 1269.22 378.941 1274.37 380.603C1276.84 381.16 1279.4 381.176 1281.88 380.65C1284.36 380.124 1286.69 379.069 1288.72 377.555C1290.88 376.345 1292.75 374.665 1294.17 372.641C1295.6 370.616 1296.55 368.298 1296.97 365.855C1297.44 360.594 1295.98 355.34 1292.86 351.081L1278.13 328.377L1247.64 348.172Z" fill="#DADADA"/>
<path d="M1283.59 410.992L1251.82 426.816L1275.86 475.161L1270.05 478.051L1242.73 423.121L1320.73 384.279L1347.33 437.781L1341.53 440.673L1318.19 393.754L1289.38 408.1L1311.03 451.623L1305.22 454.515L1283.59 410.992Z" fill="#DADADA"/>
<path d="M1318.67 536.136L1295.2 547.578L1292.71 540.537L1313.65 530.383C1318.81 527.86 1322.1 524.857 1323.51 521.376C1324.91 517.895 1324.53 513.074 1322.34 506.915L1312.61 479.445L1275.7 492.533L1273.25 485.609L1355.38 456.472L1368.5 493.524C1371.13 499.847 1371.3 506.924 1368.97 513.364C1367.77 516.259 1365.95 518.851 1363.63 520.956C1361.31 523.061 1358.55 524.625 1355.56 525.536C1350.72 527.457 1345.37 527.633 1340.41 526.035C1335.62 524.303 1331.61 520.908 1329.1 516.468C1330.84 525.284 1327.37 531.84 1318.67 536.136ZM1318.84 477.223L1328.49 504.461C1330.05 509.87 1333.48 514.548 1338.16 517.661C1340.31 518.895 1342.72 519.619 1345.2 519.777C1347.67 519.935 1350.15 519.522 1352.44 518.571C1354.69 517.916 1356.76 516.771 1358.51 515.218C1360.26 513.666 1361.65 511.744 1362.57 509.591C1364.23 504.67 1364.02 499.31 1361.98 494.536L1351.72 465.567L1318.84 477.223Z" fill="#DADADA"/>
<path d="M1299.19 565.505L1297.3 558.403L1381.5 535.973L1383.39 543.074L1299.19 565.505Z" fill="#DADADA"/>
<path d="M1345.43 576.757L1310.55 583.291L1320.48 636.361L1314.11 637.554L1302.83 577.253L1388.47 561.21L1399.46 619.943L1393.08 621.139L1383.44 569.626L1351.82 575.552L1360.75 623.335L1354.38 624.53L1345.43 576.757Z" fill="#DADADA"/>
<path d="M1329.21 705.046L1405.91 700.235L1406.36 707.324L1319.39 712.777L1318.87 704.466L1392.08 647.854L1315.63 652.649L1315.19 645.682L1402.15 640.229L1402.64 648.173L1329.21 705.046Z" fill="#DADADA"/>
<path d="M1315.2 759.818C1315.33 754.418 1316.71 749.122 1319.23 744.347C1321.76 739.571 1325.35 735.446 1329.74 732.295C1338.66 725.838 1349.79 723.045 1363.15 723.915C1376.74 724.796 1387.38 729.046 1395.06 736.664C1398.89 740.369 1401.83 744.897 1403.65 749.905C1405.47 754.913 1406.13 760.27 1405.57 765.571C1405.19 774.164 1401.94 782.379 1396.33 788.897C1391.01 794.999 1383.49 798.746 1375.42 799.319L1375.9 791.746C1382.11 791.023 1387.82 787.999 1391.91 783.271C1396.16 778.256 1398.6 771.954 1398.83 765.381C1399.29 761.048 1398.74 756.667 1397.22 752.585C1395.7 748.503 1393.24 744.832 1390.06 741.862C1383.67 735.721 1374.53 732.263 1362.65 731.489C1350.92 730.728 1341.38 732.93 1334.01 738.096C1330.35 740.588 1327.34 743.922 1325.23 747.819C1323.12 751.716 1321.97 756.062 1321.89 760.492C1321.09 767.66 1323.15 774.853 1327.63 780.501C1332.12 786.149 1338.65 789.794 1345.81 790.64L1345.32 797.97C1336.37 796.66 1328.23 792.06 1322.49 785.068C1316.9 777.906 1314.29 768.861 1315.2 759.818Z" fill="#DADADA"/>
<path d="M1353.26 816.737L1318.38 810.142L1308.36 863.213L1301.98 861.996L1313.37 801.717L1398.99 817.913L1387.9 876.629L1381.52 875.412L1391.26 823.914L1359.63 817.932L1350.6 865.698L1344.23 864.481L1353.26 816.737Z" fill="#DADADA"/>
<path d="M1289.19 898.228C1295.59 877.735 1308.2 869.539 1327.01 873.64L1324.89 880.418C1310.17 877.172 1300.23 883.81 1295.07 900.334C1292.61 908.203 1292.27 914.703 1294.04 919.833C1294.89 922.337 1296.34 924.591 1298.27 926.393C1300.2 928.196 1302.55 929.491 1305.11 930.163C1307.06 930.87 1309.14 931.148 1311.21 930.976C1313.27 930.804 1315.28 930.187 1317.09 929.167C1321.54 926.085 1325.11 921.888 1327.43 916.995L1334.62 903.849C1342.33 889.841 1351.68 884.555 1362.65 887.991C1365.83 888.864 1368.75 890.484 1371.18 892.716C1373.6 894.948 1375.46 897.728 1376.59 900.823C1379.03 907.23 1378.84 914.954 1376.02 923.994C1373.22 932.952 1368.88 939.444 1363.01 943.469C1360.03 945.469 1356.65 946.798 1353.11 947.362C1349.57 947.926 1345.95 947.713 1342.5 946.736L1344.61 939.959C1347.26 940.685 1350.03 940.822 1352.73 940.359C1355.44 939.897 1358.01 938.846 1360.26 937.281C1364.82 933.265 1368.23 928.099 1370.13 922.32C1372.03 916.541 1372.34 910.359 1371.05 904.416C1370.29 902.125 1368.98 900.057 1367.22 898.4C1365.47 896.743 1363.33 895.548 1361 894.922C1359.25 894.302 1357.38 894.077 1355.52 894.261C1353.67 894.446 1351.88 895.036 1350.28 895.991C1346.28 898.754 1343.04 902.485 1340.87 906.836L1332.78 921.625C1324.96 935.686 1315.14 940.865 1303.3 937.162C1299.92 936.237 1296.8 934.524 1294.21 932.162C1291.61 929.8 1289.62 926.856 1288.38 923.573C1285.75 916.8 1286.02 908.352 1289.19 898.228Z" fill="#DADADA"/>
<path d="M1272.58 1013.7L1295.59 965.659L1301.66 968.581L1278.65 1016.61L1272.58 1013.7Z" fill="#DADADA"/>
<path d="M1305.52 1077.34L1288.57 1102.38C1281.53 1112.79 1273.02 1118.59 1263.05 1119.77C1253.08 1120.95 1242.36 1117.65 1230.88 1109.87C1219.4 1102.08 1212.45 1093.21 1210.03 1083.25C1207.61 1073.29 1210.13 1062.79 1217.59 1051.76L1233.37 1028.45L1305.52 1077.34ZM1234.63 1038.17L1223.1 1055.21C1210.65 1073.59 1214.67 1089.72 1235.14 1103.59C1255.61 1117.46 1271.88 1115.48 1283.95 1097.63L1296.03 1079.79L1234.63 1038.17Z" fill="#DADADA"/>
<path d="M1184.21 1097.12L1188.8 1091.39L1256.83 1145.88L1252.24 1151.62L1184.21 1097.12Z" fill="#DADADA"/>
<path d="M1178.21 1161.97L1182.89 1166.46L1157.16 1193.34L1124.72 1162.25L1128.61 1158.18L1141.3 1168.47C1136.98 1155.63 1139.96 1143.85 1150.23 1133.12C1153.88 1128.97 1158.41 1125.7 1163.48 1123.52C1168.55 1121.35 1174.04 1120.32 1179.56 1120.53C1190.59 1120.81 1201.11 1125.75 1211.12 1135.35C1220.96 1144.78 1226.35 1154.97 1227.28 1165.92C1228.2 1176.75 1224.24 1186.8 1215.38 1196.06C1209.48 1202.71 1201.6 1207.29 1192.9 1209.1C1188.95 1209.83 1184.91 1209.75 1180.99 1208.88C1177.08 1208.02 1173.38 1206.37 1170.11 1204.05L1174.67 1198.58C1179.85 1202.14 1186.23 1203.49 1192.4 1202.36C1199.37 1200.84 1205.67 1197.12 1210.36 1191.75C1217.64 1184.14 1220.86 1175.82 1220.04 1166.77C1219.21 1157.73 1214.43 1149.02 1205.71 1140.67C1197.34 1132.65 1188.56 1128.31 1179.37 1127.64C1170.24 1126.91 1162.09 1130.29 1154.92 1137.78C1149.38 1143.11 1146.06 1150.35 1145.63 1158.03C1145.53 1165.87 1148.26 1173.48 1153.32 1179.47L1157.56 1183.54L1178.21 1161.97Z" fill="#DADADA"/>
<path d="M1109.45 1174.29L1114.98 1169.45L1172.32 1235.1L1166.79 1239.93L1109.45 1174.29Z" fill="#DADADA"/>
<path d="M1157.96 1248.53L1103.44 1289.67L1099.53 1284.49L1123.86 1266.13L1075.31 1201.7L1081.27 1197.21L1129.83 1261.63L1154.06 1243.35L1157.96 1248.53Z" fill="#DADADA"/>
<path d="M994.816 1253.79L1001.82 1249.52L1025.21 1267.24L1060.65 1245.65L1055.76 1216.66L1062.55 1212.53L1077.51 1305.63L1070.51 1309.9L994.816 1253.79ZM1069.07 1296L1061.82 1252.54L1030.78 1271.45L1065.73 1298.05L1070.59 1302.26L1069.07 1296Z" fill="#DADADA"/>
<path d="M1020.69 1337.21L986.902 1263.93L942.678 1284.35L939.958 1278.46L990.851 1254.96L1027.36 1334.12L1020.69 1337.21Z" fill="#DADADA"/>
<path d="M916.246 1331.3L906.373 1297.19L854.537 1312.21L852.732 1305.98L911.621 1288.91L935.866 1372.65L878.504 1389.28L876.699 1383.05L927.007 1368.46L918.052 1337.53L871.388 1351.06L869.582 1344.82L916.246 1331.3Z" fill="#DADADA"/>
<path d="M795.054 1404.3L818.532 1358.19L778.464 1318.67L787.641 1317.15L817.965 1348.1L821.614 1352.21L823.87 1347.12L843.161 1307.92L851.973 1306.46L826.361 1356.9L863.483 1392.93L854.309 1394.45L826.738 1366.64L823.298 1363.11L821.306 1367.54L803.968 1402.82L795.054 1404.3Z" fill="#DADADA"/>
<path d="M778.804 1405.65L744.093 1407.4C735.701 1407.82 728.994 1406.04 723.973 1402.04C721.405 1399.89 719.347 1397.19 717.944 1394.14C716.541 1391.1 715.829 1387.78 715.859 1384.43C715.457 1376.44 717.592 1370.16 722.265 1365.59C726.938 1361.02 733.674 1358.52 742.473 1358.08L768.992 1356.74L767.092 1318.95L774.425 1318.58L778.804 1405.65ZM769.316 1363.22L742.553 1364.57C737.142 1364.49 731.901 1366.46 727.88 1370.08C726.157 1371.94 724.857 1374.15 724.069 1376.56C723.28 1378.97 723.023 1381.53 723.313 1384.05C723.278 1386.52 723.797 1388.98 724.832 1391.23C725.867 1393.48 727.392 1395.47 729.296 1397.05C733.609 1400.1 738.886 1401.47 744.137 1400.9L771.143 1399.54L769.316 1363.22Z" fill="#DADADA"/>
<path d="M697.006 1362.84L699.195 1327.4L645.33 1324.07L645.729 1317.59L706.922 1321.37L701.548 1408.4L641.941 1404.71L642.34 1398.23L694.619 1401.46L696.604 1369.33L648.103 1366.32L648.505 1359.85L697.006 1362.84Z" fill="#DADADA"/>
<path d="M571.093 1330.76L572.903 1304.69L580.244 1306.05L578.584 1329.27C578.195 1335.01 579.158 1339.36 581.472 1342.32C583.787 1345.28 588.155 1347.35 594.576 1348.53L623.222 1353.81L630.311 1315.27L637.532 1316.6L621.757 1402.34L583.124 1395.23C576.337 1394.35 570.124 1390.96 565.709 1385.73C563.803 1383.25 562.47 1380.37 561.806 1377.31C561.143 1374.25 561.165 1371.08 561.872 1368.03C562.622 1362.88 565.143 1358.14 569.001 1354.64C572.892 1351.35 577.833 1349.57 582.927 1349.61C574.422 1346.72 570.477 1340.44 571.093 1330.76ZM622.025 1360.31L593.622 1355.08C588.161 1353.72 582.397 1354.36 577.363 1356.87C575.219 1358.12 573.391 1359.85 572.018 1361.92C570.645 1363.99 569.764 1366.34 569.444 1368.8C568.89 1371.08 568.847 1373.45 569.318 1375.74C569.789 1378.03 570.763 1380.19 572.169 1382.07C575.599 1385.96 580.347 1388.46 585.501 1389.07L615.711 1394.63L622.025 1360.31Z" fill="#DADADA"/>
<path d="M555.432 1299.22L562.522 1301.12L539.934 1385.33L532.842 1383.43L555.432 1299.22Z" fill="#DADADA"/>
<path d="M522.58 1333.7L534.331 1300.19L483.407 1282.31L485.555 1276.19L543.409 1296.5L514.554 1378.77L458.204 1358.98L460.35 1352.86L509.773 1370.21L520.432 1339.82L474.59 1323.73L476.736 1317.6L522.58 1333.7Z" fill="#DADADA"/>
<path d="M419.649 1255.58L385.473 1324.46L379.114 1321.29L417.861 1243.2L425.315 1246.9L437.724 1338.65L471.785 1270L478.04 1273.1L439.295 1351.19L432.169 1347.65L419.649 1255.58Z" fill="#DADADA"/>
<path d="M379.277 1215.97C383.879 1218.8 387.765 1222.65 390.628 1227.23C393.491 1231.81 395.253 1236.99 395.777 1242.37C396.885 1253.33 393.713 1264.37 386.262 1275.49C378.677 1286.82 369.666 1293.89 359.227 1296.72C354.103 1298.18 348.716 1298.45 343.473 1297.51C338.231 1296.57 333.269 1294.46 328.966 1291.32C321.728 1286.68 316.257 1279.74 313.431 1271.61C310.828 1263.95 311.361 1255.56 314.913 1248.29L321.217 1252.51C318.729 1258.24 318.477 1264.7 320.511 1270.61C322.715 1276.81 326.941 1282.08 332.508 1285.58C336.022 1288.16 340.086 1289.88 344.379 1290.61C348.672 1291.34 353.075 1291.06 357.241 1289.79C365.757 1287.34 373.329 1281.16 379.958 1271.26C386.499 1261.5 389.385 1252.13 388.614 1243.17C388.298 1238.74 386.925 1234.46 384.613 1230.68C382.301 1226.9 379.116 1223.73 375.325 1221.43C369.531 1217.14 362.276 1215.32 355.145 1216.37C348.014 1217.41 341.586 1221.24 337.264 1227.01L331.165 1222.92C336.785 1215.83 344.843 1211.09 353.767 1209.63C362.77 1208.38 371.908 1210.65 379.277 1215.97Z" fill="#DADADA"/>
<path d="M311.027 1220.39L334.213 1193.51L293.355 1158.23L297.593 1153.31L344.008 1193.39L287.077 1259.4L241.866 1220.36L246.102 1215.45L285.759 1249.69L306.787 1225.31L270.005 1193.54L274.241 1188.63L311.027 1220.39Z" fill="#DADADA"/>
<path d="M272.587 1124.04C287.116 1139.84 287.906 1154.87 274.957 1169.12L270.151 1163.89C280.315 1152.76 279.54 1140.83 267.828 1128.09C262.25 1122.02 256.797 1118.47 251.469 1117.44C248.878 1116.93 246.2 1117.06 243.674 1117.83C241.147 1118.6 238.852 1119.99 236.993 1121.87C235.404 1123.21 234.123 1124.87 233.238 1126.75C232.353 1128.63 231.884 1130.68 231.864 1132.75C232.302 1138.15 234.148 1143.34 237.216 1147.8L245.002 1160.6C253.274 1174.29 253.173 1185.03 244.7 1192.82C242.356 1195.14 239.492 1196.86 236.348 1197.85C233.203 1198.83 229.869 1199.05 226.623 1198.48C219.855 1197.39 213.266 1193.36 206.858 1186.39C200.506 1179.49 197.059 1172.48 196.516 1165.38C196.274 1161.8 196.813 1158.21 198.096 1154.86C199.379 1151.51 201.375 1148.48 203.946 1145.98L208.753 1151.2C206.803 1153.13 205.298 1155.46 204.345 1158.04C203.393 1160.61 203.016 1163.36 203.24 1166.09C204.122 1172.31 207.036 1178.05 211.527 1182.43C215.314 1187.08 220.487 1190.39 226.29 1191.88C228.652 1192.37 231.099 1192.27 233.411 1191.58C235.722 1190.89 237.826 1189.63 239.533 1187.93C240.947 1186.71 242.078 1185.21 242.844 1183.51C243.611 1181.81 243.994 1179.97 243.968 1178.1C243.579 1173.25 241.97 1168.58 239.292 1164.52L230.533 1150.12C222.273 1136.31 222.705 1125.21 231.83 1116.8C234.322 1114.34 237.363 1112.49 240.704 1111.43C244.045 1110.36 247.59 1110.1 251.05 1110.67C258.227 1111.78 265.406 1116.23 272.587 1124.04Z" fill="#DADADA"/>
<path d="M180.872 1051.98L211.004 1095.9L205.454 1099.71L175.322 1055.8L180.872 1051.98Z" fill="#DADADA"/>
<path d="M109.321 1048.84L96.0809 1021.65C90.5776 1010.35 89.7974 1000.09 93.7404 990.85C97.6834 981.614 105.89 973.957 118.359 967.881C130.831 961.803 141.985 960.202 151.822 963.078C161.659 965.954 169.493 973.372 175.322 985.333L187.65 1010.65L109.321 1048.84ZM178.604 1006.9L169.602 988.394C159.882 968.431 143.91 963.868 121.688 974.705C99.4651 985.541 93.0713 1000.65 102.506 1020.02L111.941 1039.39L178.604 1006.9Z" fill="#DADADA"/>
<path d="M152.715 933.807L155.391 940.65L74.2476 972.414L71.5713 965.571L152.715 933.807Z" fill="#DADADA"/>
<path d="M99.5819 896.163L93.356 897.976L82.9648 862.232L126.091 849.682L127.663 855.089L112.411 860.932C125.682 863.622 134.39 872.098 138.536 886.359C140.294 891.594 140.867 897.156 140.213 902.64C139.558 908.124 137.693 913.394 134.753 918.068C128.995 927.481 119.456 934.124 106.136 937.998C93.0519 941.802 81.5399 941.369 71.6005 936.698C61.7633 932.081 55.0556 923.618 51.4776 911.31C48.6684 902.871 48.6548 893.752 51.4387 885.305C52.785 881.527 54.8741 878.058 57.5827 875.101C60.2914 872.145 63.5646 869.761 67.2091 868.091L69.6615 874.774C63.9938 877.487 59.6292 882.333 57.521 888.256C55.3497 895.049 55.4196 902.361 57.7206 909.111C60.6596 919.224 66.2504 926.184 74.4933 929.991C82.7361 933.799 92.6553 934.015 104.251 930.641C115.378 927.395 123.527 921.963 128.7 914.343C133.9 906.796 135.052 898.044 132.157 888.088C130.31 880.619 125.713 874.122 119.286 869.898C112.549 865.896 104.597 864.453 96.8838 865.832L91.2442 867.473L99.5819 896.163Z" fill="#DADADA"/>
<path d="M123.354 830.438L124.765 837.649L39.2544 854.391L37.8433 847.18L123.354 830.438Z" fill="#DADADA"/>
<path d="M34.8361 835.234L26.6249 767.402L33.0625 766.623L36.7264 796.89L116.79 787.189L117.688 794.604L37.6243 804.305L41.2737 834.453L34.8361 835.234Z" fill="#DADADA"/>
<path d="M112.107 691.331L112.287 699.532L85.2372 710.903L86.1447 752.405L113.666 762.703L113.839 770.661L25.8269 736.944L25.6469 728.743L112.107 691.331ZM38.3882 734.466L79.6097 749.976L78.8166 713.618L38.3006 730.549L32.2182 732.64L38.3882 734.466Z" fill="#DADADA"/>
<path d="M26.9388 672.086L107.253 679.39L111.666 630.854L118.126 631.441L113.046 687.294L26.2722 679.392L26.9388 672.086Z" fill="#DADADA"/>
<path d="M84.2153 584.469L118.683 592.928L131.539 540.481L137.838 542.029L123.24 601.609L38.6144 580.841L52.8424 522.805L59.1413 524.351L46.6627 575.252L77.9237 582.925L89.4949 535.71L95.7962 537.255L84.2153 584.469Z" fill="#DADADA"/>
<path d="M81.4685 442.973L109.691 486.345L163.904 471.337L160.647 480.052L118.693 490.895L113.309 492.017L116.593 496.513L140.923 532.811L137.791 541.19L106.893 493.806L57.1609 508.009L60.421 499.294L98.2681 489.271L103.037 488.054L100.202 484.103L78.3057 451.46L81.4685 442.973Z" fill="#DADADA"/>
<path d="M88.4755 428.096L104.324 397.144C108.153 389.661 113.054 384.744 119.026 382.394C122.175 381.247 125.539 380.811 128.876 381.118C132.214 381.425 135.442 382.467 138.329 384.169C145.446 387.821 149.812 392.811 151.426 399.141C153.04 405.47 151.839 412.559 147.825 420.408L135.723 444.056L169.378 461.309L166.031 467.847L88.4755 428.096ZM129.943 441.098L142.163 417.241C144.94 412.588 145.855 407.057 144.725 401.758C143.977 399.335 142.713 397.103 141.022 395.215C139.33 393.326 137.25 391.826 134.925 390.817C132.8 389.548 130.417 388.77 127.952 388.542C125.487 388.314 123.003 388.642 120.68 389.5C115.885 391.712 112.061 395.598 109.927 400.431L97.5966 424.515L129.943 441.098Z" fill="#DADADA"/>
<path d="M166.464 378.609L196.01 398.282L225.911 353.328L231.309 356.923L197.34 407.995L124.804 359.691L157.892 309.944L163.291 313.54L134.264 357.172L161.058 375.014L187.974 334.544L193.375 338.139L166.464 378.609Z" fill="#DADADA"/>
<path d="M257.327 285.756L278.956 300.387L274.107 306.066L254.855 292.983C250.088 289.77 245.845 288.424 242.126 288.945C238.407 289.466 234.427 292.209 230.185 297.176L211.262 319.329L241.029 344.788L236.26 350.375L170.028 293.728L195.552 263.848C199.714 258.413 205.758 254.732 212.495 253.529C215.599 253.125 218.754 253.414 221.733 254.374C224.712 255.335 227.441 256.943 229.726 259.084C233.802 262.319 236.628 266.872 237.72 271.962C238.615 276.981 237.681 282.154 235.088 286.542C241.853 280.628 249.266 280.366 257.327 285.756ZM206.235 315.034L225.013 293.066C228.918 289.014 231.256 283.705 231.609 278.087C231.603 275.605 231.028 273.157 229.929 270.932C228.829 268.707 227.234 266.764 225.266 265.253C223.576 263.633 221.549 262.407 219.329 261.665C217.11 260.923 214.753 260.683 212.43 260.961C207.341 261.979 202.806 264.839 199.693 268.995L179.743 292.365L206.235 315.034Z" fill="#DADADA"/>
<path d="M292.471 287.951L287.272 293.142L225.718 231.422L230.918 226.234L292.471 287.951Z" fill="#DADADA"/>
<path d="M279.024 242.287L302.159 269.214L343.084 234.01L347.313 238.93L300.824 278.925L244.019 212.813L289.306 173.862L293.534 178.782L253.816 212.949L274.798 237.369L311.638 205.678L315.867 210.6L279.024 242.287Z" fill="#DADADA"/>
<path d="M398.061 192.02L355.434 128.034L361.341 124.092L409.669 196.638L402.745 201.264L317.078 166.281L359.57 230.063L353.765 233.934L305.437 161.388L312.054 156.974L398.061 192.02Z" fill="#DADADA"/>
<path d="M452.494 176.744C447.753 179.328 442.478 180.777 437.083 180.977C431.688 181.177 426.32 180.122 421.401 177.895C411.356 173.39 403.373 165.133 397.451 153.125C391.422 140.899 389.785 129.554 392.541 119.089C393.835 113.92 396.288 109.113 399.714 105.033C403.139 100.953 407.448 97.7059 412.314 95.5388C419.943 91.5729 428.683 90.2869 437.13 91.8872C445.068 93.4529 452.065 98.0974 456.594 104.807L449.781 108.164C446.056 103.147 440.587 99.7094 434.454 98.5283C427.987 97.3477 421.31 98.3829 415.504 101.467C411.522 103.231 408.006 105.898 405.233 109.258C402.46 112.618 400.507 116.577 399.529 120.823C397.402 129.424 398.975 139.071 404.246 149.763C409.437 160.312 416.112 167.485 424.272 171.281C428.26 173.211 432.653 174.156 437.082 174.036C441.511 173.917 445.847 172.737 449.725 170.595C456.327 167.707 461.52 162.323 464.17 155.619C466.821 148.915 466.714 141.434 463.873 134.809L470.457 131.559C473.796 139.968 473.883 149.322 470.7 157.792C467.296 166.219 460.775 173.008 452.494 176.744V176.744Z" fill="#DADADA"/>
<path d="M482.738 115.348L494.416 148.88L545.375 131.109L547.511 137.236L489.618 157.442L460.924 75.1194L517.313 55.4419L519.449 61.5718L470.011 78.8124L480.609 109.221L526.485 93.212L528.621 99.3394L482.738 115.348Z" fill="#DADADA"/>
<path d="M585.348 130.237C564.405 134.904 551.014 128.061 545.175 109.707L552.101 108.164C556.643 122.542 567.353 127.85 584.231 124.09C592.274 122.305 598.076 119.361 601.636 115.258C603.382 113.275 604.609 110.889 605.206 108.315C605.804 105.74 605.755 103.058 605.062 100.508C604.702 98.4626 603.904 96.5197 602.723 94.812C601.542 93.1044 600.006 91.6724 598.22 90.6142C593.334 88.2891 587.924 87.2884 582.53 87.7123L567.558 88.0361C551.578 88.3364 542.338 82.8678 539.837 71.6305C539.006 68.4381 538.95 65.0932 539.674 61.8748C540.398 58.6563 541.88 55.6577 543.997 53.1289C548.333 47.817 555.119 44.1313 564.356 42.0717C573.511 40.0317 581.296 40.5559 587.712 43.6444C590.93 45.2294 593.764 47.4954 596.019 50.2853C598.274 53.0752 599.896 56.3223 600.772 59.8017L593.848 61.3646C593.159 58.7088 591.896 56.2367 590.147 54.123C588.399 52.0092 586.208 50.3053 583.73 49.1316C577.973 47.1774 571.798 46.7995 565.846 48.037C559.893 49.2744 554.38 52.0823 549.878 56.1695C548.27 57.9697 547.135 60.1412 546.575 62.4888C546.014 64.8365 546.044 67.2868 546.664 69.6197C547.003 71.4517 547.741 73.1866 548.825 74.7012C549.91 76.2158 551.314 77.473 552.938 78.3836C557.328 80.4764 562.175 81.4252 567.03 81.1418L583.876 80.7767C599.953 80.5413 609.339 86.4789 612.035 98.5894C612.922 101.984 612.992 105.541 612.24 108.969C611.488 112.397 609.936 115.597 607.709 118.308C603.153 123.956 595.699 127.932 585.348 130.237Z" fill="#DADADA"/>
<path d="M693.629 86.9915L640.561 91.0424L640.048 84.3282L693.128 80.2749L693.629 86.9915Z" fill="#DADADA"/>
</svg>
